<?xml version="1.0" encoding="UTF-8" standalone="no"?>
<!-- Created with Inkscape (http://www.inkscape.org/) -->

<svg
   width="1920"
   height="1080"
   viewBox="0 0 508 285.75"
   version="1.1"
   id="svg5"
   xml:space="preserve"
   inkscape:version="1.2.2 (b0a8486541, 2022-12-01)"
   sodipodi:docname="happy.svg"
   xmlns:inkscape="http://www.inkscape.org/namespaces/inkscape"
   xmlns:sodipodi="http://sodipodi.sourceforge.net/DTD/sodipodi-0.dtd"
   xmlns="http://www.w3.org/2000/svg"
   xmlns:svg="http://www.w3.org/2000/svg"><sodipodi:namedview
     id="namedview7"
     pagecolor="#ffffff"
     bordercolor="#000000"
     borderopacity="0.25"
     inkscape:showpageshadow="2"
     inkscape:pageopacity="0.0"
     inkscape:pagecheckerboard="0"
     inkscape:deskcolor="#d1d1d1"
     inkscape:document-units="mm"
     showgrid="false"
     inkscape:zoom="0.42223368"
     inkscape:cx="1004.1833"
     inkscape:cy="686.82347"
     inkscape:window-width="2560"
     inkscape:window-height="1408"
     inkscape:window-x="1440"
     inkscape:window-y="930"
     inkscape:window-maximized="1"
     inkscape:current-layer="layer1" /><defs
     id="defs2" /><g
     inkscape:label="Layer 1"
     inkscape:groupmode="layer"
     id="layer1"><path
       d="m 53.156743,34.555625 c 0,-3.22383 -2.621077,-5.84491 -5.844909,-5.84491 -3.223833,0 -5.844913,2.62108 -5.844913,5.84491 0,3.22383 2.62108,5.84491 5.844913,5.84491 3.223832,0 5.844909,-2.62108 5.844909,-5.84491 z m -9.415785,9.6167 c -2.164445,-0.76714 -4.064039,-2.21923 -5.370011,-4.18276 l -1.780873,-2.67587 c -0.894999,-1.3425 -2.703269,-1.69868 -4.045773,-0.80368 -1.342501,0.895 -1.70781,2.70327 -0.812807,4.05491 l 1.780872,2.66674 c 1.653011,2.47495 3.908782,4.42021 6.493329,5.69879 v 23.61708 c 0,1.61649 1.305971,2.92246 2.922456,2.92246 1.616481,0 2.922453,-1.30597 2.922453,-2.92246 v -8.76736 h 2.922456 v 8.76736 c 0,1.61649 1.305972,2.92246 2.922456,2.92246 1.616482,0 2.922454,-1.30597 2.922454,-2.92246 v -23.59882 c 2.657609,-1.29684 4.968176,-3.30603 6.639453,-5.86317 l 1.662148,-2.54802 c 0.876736,-1.35163 0.493164,-3.1599 -0.858474,-4.04577 -1.351634,-0.88587 -3.159903,-0.5023 -4.045773,0.85847 l -1.662144,2.53888 c -1.990924,3.05031 -5.379145,4.89511 -9.023083,4.89511 -1.150717,0 -2.274034,-0.18265 -3.342558,-0.52969 -0.08219,-0.0274 -0.164388,-0.0639 -0.246581,-0.0822 z"
       id="path132"
       style="stroke-width:0.0913266;fill:#ffffff;fill-opacity:1" /><path
       d="m 119.16863,188.17559 c 0,-3.89401 -3.16596,-7.05996 -7.05996,-7.05996 -3.89401,0 -7.05996,3.16595 -7.05996,7.05996 0,3.89401 3.16595,7.05996 7.05996,7.05996 3.894,0 7.05996,-3.16595 7.05996,-7.05996 z m -11.37316,11.61584 c -2.61438,-0.92662 -4.90888,-2.68058 -6.48633,-5.05229 l -2.151077,-3.23213 c -1.081057,-1.62158 -3.265232,-2.0518 -4.886817,-0.97075 -1.621582,1.08105 -2.062832,3.26524 -0.981775,4.89785 l 2.151082,3.2211 c 1.996641,2.98945 4.721337,5.33909 7.843167,6.88347 v 28.52664 c 0,1.95252 1.57746,3.52998 3.52999,3.52998 1.95251,0 3.52997,-1.57746 3.52997,-3.52998 v -10.58993 h 3.52997 v 10.58993 c 0,1.95252 1.57747,3.52998 3.52999,3.52998 1.95251,0 3.52997,-1.57746 3.52997,-3.52998 v -28.50459 c 3.21008,-1.56643 6.00097,-3.99328 8.01968,-7.08201 l 2.00768,-3.07771 c 1.05898,-1.63261 0.59568,-3.81678 -1.03694,-4.88681 -1.63261,-1.07001 -3.81679,-0.60672 -4.88681,1.03693 l -2.00768,3.06668 c -2.4048,3.6844 -6.49737,5.9127 -10.89881,5.9127 -1.38994,0 -2.74676,-0.22062 -4.03742,-0.63979 -0.0993,-0.0331 -0.19855,-0.0772 -0.29784,-0.0993 z"
       id="path132-3"
       style="fill:#ffffff;fill-opacity:1;stroke-width:0.110312" /><path
       d="m 171.85255,73.893419 c 0,-3.3213 -4.82263,-6.02163 -10.75433,-6.02163 -5.93167,0 -10.75432,2.70033 -10.75432,6.02163 0,3.3213 4.82265,6.02163 10.75432,6.02163 5.9317,0 10.75433,-2.70033 10.75433,-6.02163 z m -17.32454,9.90746 c -3.98247,-0.79033 -7.47762,-2.28633 -9.88053,-4.30922 l -3.27672,-2.75678 c -1.64676,-1.38309 -4.97388,-1.75004 -7.44401,-0.82798 -2.47012,0.92206 -3.14228,2.78501 -1.49552,4.17751 l 3.27672,2.74737 c 3.04145,2.54978 7.19195,4.55386 11.94738,5.87109 v 24.331141 c 0,1.66537 2.40292,3.01082 5.37715,3.01082 2.97424,0 5.37716,-1.34545 5.37716,-3.01082 v -9.03244 h 5.37717 v 9.03244 c 0,1.66537 2.40291,3.01082 5.37717,3.01082 2.97424,0 5.37715,-1.34545 5.37715,-3.01082 V 88.721689 c 4.88986,-1.33605 9.14119,-3.40599 12.21623,-6.04045 l 3.05827,-2.62506 c 1.61316,-1.39249 0.90741,-3.25544 -1.57954,-4.16809 -2.48694,-0.91265 -5.81406,-0.51749 -7.44402,0.88443 l -3.05825,2.61564 c -3.66318,3.14253 -9.89733,5.04311 -16.60198,5.04311 -2.11727,0 -4.18411,-0.18817 -6.15013,-0.5457 -0.15125,-0.0282 -0.30247,-0.0658 -0.4537,-0.0847 z"
       id="path132-6"
       style="fill:#ffffff;fill-opacity:1;stroke-width:0.125738" /><path
       d="m 346.44899,17.307167 c 0,-2.740726 -2.36304,-4.969027 -5.26952,-4.969027 -2.90647,0 -5.26952,2.228301 -5.26952,4.969027 0,2.740726 2.36305,4.969027 5.26952,4.969027 2.90648,0 5.26952,-2.228301 5.26952,-4.969027 z m -8.48887,8.175599 c -1.95137,-0.652181 -3.66396,-1.88667 -4.84137,-3.555957 l -1.60557,-2.27488 c -0.80689,-1.141321 -2.43715,-1.444126 -3.64749,-0.683245 -1.21034,0.76088 -1.53969,2.298174 -0.73279,3.447265 l 1.60556,2.267119 c 1.49028,2.104068 3.52399,3.757823 5.8541,4.844803 v 20.077966 c 0,1.374253 1.17742,2.484518 2.63477,2.484518 1.45735,0 2.63476,-1.110265 2.63476,-2.484518 v -7.453536 h 2.63476 v 7.453536 c 0,1.374253 1.17741,2.484518 2.63477,2.484518 1.45735,0 2.63475,-1.110265 2.63475,-2.484518 V 29.543395 c 2.39599,-1.102504 4.4791,-2.810608 5.98585,-4.984551 l 1.49852,-2.166189 c 0.79044,-1.149083 0.44462,-2.686376 -0.77396,-3.439495 -1.21858,-0.753119 -2.84884,-0.427028 -3.6475,0.729825 l -1.49851,2.158419 c -1.79493,2.593208 -4.84962,4.161558 -8.13483,4.161558 -1.03744,0 -2.05018,-0.155279 -3.01351,-0.450314 -0.0741,-0.02329 -0.14821,-0.05432 -0.22231,-0.06988 z"
       id="path132-7"
       style="stroke-width:0.0799541;fill:#ffffff;fill-opacity:1" /><path
       d="m 391.89911,182.57833 c 0,-1.27627 -1.341,-2.31392 -2.99039,-2.31392 -1.64939,0 -2.99039,1.03765 -2.99039,2.31392 0,1.27628 1.341,2.31393 2.99039,2.31393 1.64939,0 2.99039,-1.03765 2.99039,-2.31393 z m -4.81733,3.80713 c -1.10738,-0.3037 -2.07926,-0.87856 -2.74742,-1.6559 l -0.91114,-1.05934 c -0.4579,-0.53148 -1.38306,-0.67249 -2.06991,-0.31817 -0.68686,0.35432 -0.87376,1.07019 -0.41585,1.60529 l 0.91114,1.05573 c 0.84571,0.9798 1.99982,1.7499 3.32213,2.25607 v 9.3497 c 0,0.63994 0.66817,1.15696 1.4952,1.15696 0.82703,0 1.49519,-0.51702 1.49519,-1.15696 v -3.47089 h 1.4952 v 3.47089 c 0,0.63994 0.66816,1.15696 1.4952,1.15696 0.82703,0 1.49519,-0.51702 1.49519,-1.15696 v -9.34247 c 1.3597,-0.5134 2.54184,-1.30881 3.3969,-2.32115 l 0.85039,-1.00872 c 0.44856,-0.5351 0.25231,-1.25097 -0.43921,-1.60167 -0.69153,-0.35071 -1.61668,-0.19885 -2.06992,0.33985 l -0.85039,1.00511 c -1.0186,1.20758 -2.75209,1.93791 -4.61641,1.93791 -0.58874,0 -1.16345,-0.0723 -1.71013,-0.2097 -0.0421,-0.0108 -0.0841,-0.0253 -0.12616,-0.0325 z"
       id="path132-5"
       style="stroke-width:0.0411015;fill:#ffffff;fill-opacity:1" /><path
       d="m 308.17225,93.459493 c 0,-0.827996 -0.86999,-1.501184 -1.94006,-1.501184 -1.07006,0 -1.94005,0.673188 -1.94005,1.501184 0,0.828002 0.86999,1.50119 1.94005,1.50119 1.07007,0 1.94006,-0.673188 1.94006,-1.50119 z m -3.12531,2.469922 c -0.71842,-0.197029 -1.34894,-0.569977 -1.78242,-1.074285 l -0.59111,-0.68726 c -0.29707,-0.344804 -0.89728,-0.436286 -1.34288,-0.206417 -0.44561,0.22987 -0.56686,0.694299 -0.26979,1.041452 l 0.59111,0.684917 c 0.54867,0.635658 1.29741,1.13527 2.15528,1.463654 v 6.065734 c 0,0.41517 0.43348,0.75059 0.97003,0.75059 0.53654,0 0.97002,-0.33542 0.97002,-0.75059 v -2.25178 h 0.97003 v 2.25178 c 0,0.41517 0.43348,0.75059 0.97003,0.75059 0.53654,0 0.97002,-0.33542 0.97002,-0.75059 v -6.061044 c 0.88212,-0.333074 1.64905,-0.849106 2.20378,-1.505874 l 0.5517,-0.65442 c 0.29101,-0.347153 0.16369,-0.811582 -0.28494,-1.039103 -0.44864,-0.227527 -1.04884,-0.129006 -1.34289,0.220482 l -0.5517,0.652077 c -0.66083,0.783433 -1.78545,1.257243 -2.99495,1.257243 -0.38195,0 -0.7548,-0.0469 -1.10947,-0.136045 -0.0273,-0.007 -0.0546,-0.01641 -0.0819,-0.02108 z"
       id="path132-5-1"
       style="stroke-width:0.0266651;fill:#ffffff;fill-opacity:1" /><path
       d="m 43.2962,149.64686 c 0,-0.828 -0.86999,-1.50119 -1.94006,-1.50119 -1.07006,0 -1.94005,0.67319 -1.94005,1.50119 0,0.828 0.86999,1.50119 1.94005,1.50119 1.07007,0 1.94006,-0.67319 1.94006,-1.50119 z m -3.12531,2.46992 c -0.71842,-0.19703 -1.34894,-0.56998 -1.78242,-1.07428 l -0.59111,-0.68726 c -0.29707,-0.34481 -0.89728,-0.43629 -1.34288,-0.20642 -0.44561,0.22987 -0.56686,0.6943 -0.26979,1.04145 l 0.59111,0.68492 c 0.54867,0.63566 1.29741,1.13527 2.15528,1.46365 v 6.06574 c 0,0.41517 0.43348,0.75059 0.97003,0.75059 0.53654,0 0.97002,-0.33542 0.97002,-0.75059 v -2.25178 h 0.97003 v 2.25178 c 0,0.41517 0.43348,0.75059 0.97003,0.75059 0.53654,0 0.97002,-0.33542 0.97002,-0.75059 v -6.06105 c 0.88212,-0.33307 1.64905,-0.8491 2.20378,-1.50587 l 0.5517,-0.65442 c 0.29101,-0.34716 0.16369,-0.81158 -0.28494,-1.03911 -0.44864,-0.22752 -1.04884,-0.129 -1.34289,0.22049 l -0.5517,0.65207 c -0.66083,0.78344 -1.78545,1.25725 -2.99495,1.25725 -0.38195,0 -0.7548,-0.0469 -1.10947,-0.13605 -0.0273,-0.007 -0.0546,-0.0164 -0.0819,-0.0211 z"
       id="path132-5-1-2"
       style="stroke-width:0.0266651;fill:#ffffff;fill-opacity:1" /><path
       d="m 297.92843,197.70415 c 0,-4.51401 -4.52336,-8.18404 -10.08696,-8.18404 -5.56358,0 -10.08695,3.67003 -10.08695,8.18404 0,4.514 4.52337,8.18403 10.08695,8.18403 5.5636,0 10.08696,-3.67003 10.08696,-8.18403 z m -16.24945,13.46529 c -3.73534,-1.07415 -7.01359,-3.10736 -9.26739,-5.8567 l -3.07338,-3.74675 c -1.54456,-1.87976 -4.66522,-2.37849 -6.98206,-1.12531 -2.31684,1.25318 -2.94728,3.78512 -1.40272,5.67768 l 3.07338,3.73397 c 2.85271,3.46542 6.74565,6.18917 11.20596,7.97944 v 33.0686 c 0,2.26341 2.25382,4.09203 5.04349,4.09203 2.78967,0 5.04347,-1.82862 5.04347,-4.09203 v -12.27604 h 5.04348 v 12.27604 c 0,2.26341 2.2538,4.09203 5.04349,4.09203 2.78967,0 5.04347,-1.82862 5.04347,-4.09203 v -33.04304 c 4.58642,-1.81583 8.57392,-4.6291 11.45814,-8.2096 L 314.7768,206.08 c 1.51305,-1.89256 0.8511,-4.42449 -1.48152,-5.66489 -2.33262,-1.24039 -5.45327,-0.70332 -6.98208,1.20203 l -2.86846,3.55494 c -3.43587,4.27104 -9.28316,6.85413 -15.57174,6.85413 -1.98587,0 -3.92446,-0.25575 -5.76848,-0.74168 -0.14186,-0.0384 -0.2837,-0.0895 -0.42554,-0.11509 z"
       id="path132-35"
       style="stroke-width:0.141966;fill:#ffffff;fill-opacity:1" /><path
       d="m 471.81243,54.096644 c 0,-3.929576 -4.22957,-7.12445 -9.43181,-7.12445 -5.20222,0 -9.4318,3.194874 -9.4318,7.12445 0,3.929576 4.22958,7.12445 9.4318,7.12445 5.20224,0 9.43181,-3.194874 9.43181,-7.12445 z m -15.19404,11.721943 c -3.49273,-0.935079 -6.55806,-2.705053 -8.66547,-5.09843 l -2.87377,-3.261659 c -1.44423,-1.636394 -4.36221,-2.070547 -6.52857,-0.979618 -2.16636,1.090929 -2.75586,3.295057 -1.31162,4.942592 l 2.87377,3.25053 c 2.66743,3.016755 6.30752,5.387862 10.47815,6.946342 v 28.787216 c 0,1.97037 2.10741,3.56224 4.71589,3.56224 2.60848,0 4.7159,-1.59187 4.7159,-3.56224 V 89.718895 h 4.71591 v 10.686665 c 0,1.97037 2.10741,3.56224 4.71591,3.56224 2.60848,0 4.71589,-1.59187 4.71589,-3.56224 V 71.640602 c 4.28853,-1.580738 8.01705,-4.029771 10.71394,-7.146708 l 2.68218,-3.10582 c 1.41477,-1.647523 0.7958,-3.851651 -1.3853,-4.931451 -2.18111,-1.079801 -5.09908,-0.612262 -6.52859,1.046402 l -2.68216,3.09468 c -3.2127,3.718069 -8.6802,5.966724 -14.56035,5.966724 -1.85689,0 -3.66956,-0.222635 -5.39381,-0.645647 -0.13265,-0.0334 -0.26528,-0.07789 -0.3979,-0.100195 z"
       id="path132-62"
       style="stroke-width:0.128083;fill:#ffffff;fill-opacity:1" /><path
       d="m 459.5195,231.8631 c 0,-3.22383 -2.62107,-5.84491 -5.84491,-5.84491 -3.22383,0 -5.84491,2.62108 -5.84491,5.84491 0,3.22383 2.62108,5.84491 5.84491,5.84491 3.22384,0 5.84491,-2.62108 5.84491,-5.84491 z m -9.41578,9.6167 c -2.16445,-0.76713 -4.06404,-2.21923 -5.37001,-4.18276 l -1.78088,-2.67587 c -0.895,-1.3425 -2.70327,-1.69868 -4.04577,-0.80368 -1.3425,0.895 -1.70781,2.70327 -0.81281,4.05491 l 1.78088,2.66674 c 1.65301,2.47495 3.90878,4.42021 6.49332,5.69879 v 23.61708 c 0,1.61649 1.30598,2.92246 2.92246,2.92246 1.61648,0 2.92245,-1.30597 2.92245,-2.92246 v -8.76736 h 2.92246 v 8.76736 c 0,1.61649 1.30597,2.92246 2.92246,2.92246 1.61648,0 2.92245,-1.30597 2.92245,-2.92246 v -23.59882 c 2.65761,-1.29684 4.96818,-3.30603 6.63945,-5.86317 l 1.66215,-2.54802 c 0.87674,-1.35163 0.49316,-3.1599 -0.85847,-4.04577 -1.35164,-0.88587 -3.15991,-0.5023 -4.04578,0.85847 l -1.66214,2.53888 c -1.99092,3.05031 -5.37915,4.89511 -9.02308,4.89511 -1.15072,0 -2.27404,-0.18265 -3.34256,-0.52969 -0.0822,-0.0274 -0.16439,-0.0639 -0.24658,-0.0822 z"
       id="path132-9"
       style="stroke-width:0.0913266;fill:#ffffff;fill-opacity:1" /></g></svg>
