<?xml version="1.0" encoding="UTF-8" standalone="no"?>
<!-- Created with Inkscape (http://www.inkscape.org/) -->

<svg
   width="111.11169mm"
   height="111.11169mm"
   viewBox="0 0 111.1117 111.1117"
   version="1.1"
   id="svg1"
   xml:space="preserve"
   inkscape:version="1.4.2 (1:1.4.2+202505120737+ebf0e940d0)"
   sodipodi:docname="panda_logo.svg"
   inkscape:export-filename="panda_logo.png"
   inkscape:export-xdpi="300"
   inkscape:export-ydpi="300"
   xmlns:inkscape="http://www.inkscape.org/namespaces/inkscape"
   xmlns:sodipodi="http://sodipodi.sourceforge.net/DTD/sodipodi-0.dtd"
   xmlns="http://www.w3.org/2000/svg"
   xmlns:svg="http://www.w3.org/2000/svg"><sodipodi:namedview
     id="namedview1"
     pagecolor="#ffffff"
     bordercolor="#000000"
     borderopacity="0.25"
     inkscape:showpageshadow="2"
     inkscape:pageopacity="0.0"
     inkscape:pagecheckerboard="0"
     inkscape:deskcolor="#d1d1d1"
     inkscape:document-units="mm"
     inkscape:zoom="1.421118"
     inkscape:cx="317.00394"
     inkscape:cy="255.4327"
     inkscape:window-width="2516"
     inkscape:window-height="1315"
     inkscape:window-x="2580"
     inkscape:window-y="103"
     inkscape:window-maximized="1"
     inkscape:current-layer="g5" /><defs
     id="defs1" /><g
     inkscape:label="Layer 1"
     inkscape:groupmode="layer"
     id="layer1"
     transform="translate(-52.200332,-107.70121)"><g
       id="g5"
       transform="matrix(0.76867029,0,0,0.76867029,1.8912688,90.37258)"><path
         style="fill:#2b2b2b;fill-opacity:1;stroke-width:1.133"
         id="path1"
         sodipodi:type="arc"
         sodipodi:cx="137.72473"
         sodipodi:cy="94.818901"
         sodipodi:rx="72.275261"
         sodipodi:ry="72.275261"
         sodipodi:start="5.8746222"
         sodipodi:end="5.8716078"
         sodipodi:open="true"
         sodipodi:arc-type="arc"
         d="M 204.05121,66.104582 A 72.275261,72.275261 0 0 1 166.48903,161.12372 72.275261,72.275261 0 0 1 71.44161,123.63315 72.275261,72.275261 0 0 1 108.86054,28.557513 72.275261,72.275261 0 0 1 203.96435,65.904778" /><path
         style="fill:#969696;fill-opacity:1;stroke-width:1.16537"
         id="path3"
         sodipodi:type="arc"
         sodipodi:cx="104.68082"
         sodipodi:cy="81.127419"
         sodipodi:rx="14.218085"
         sodipodi:ry="14.218085"
         sodipodi:start="5.8746222"
         sodipodi:end="5.8716078"
         sodipodi:open="true"
         sodipodi:arc-type="arc"
         d="M 117.72865,75.4787 A 14.218085,14.218085 0 0 1 110.33937,94.17099 14.218085,14.218085 0 0 1 91.641513,86.795797 14.218085,14.218085 0 0 1 99.002614,68.09239 14.218085,14.218085 0 0 1 117.71156,75.439394" /><path
         style="fill:#6b6b6b;fill-opacity:1;stroke-width:1.16537"
         id="path3-6"
         sodipodi:type="arc"
         sodipodi:cx="169.99887"
         sodipodi:cy="81.231216"
         sodipodi:rx="14.218085"
         sodipodi:ry="14.218085"
         sodipodi:start="5.8746222"
         sodipodi:end="5.8716078"
         sodipodi:open="true"
         sodipodi:arc-type="arc"
         d="m 183.0467,75.582498 a 14.218085,14.218085 0 0 1 -7.38928,18.69229 14.218085,14.218085 0 0 1 -18.69785,-7.375193 14.218085,14.218085 0 0 1 7.3611,-18.703407 14.218085,14.218085 0 0 1 18.70895,7.347004" /><path
         style="fill:#b9b9b9;fill-opacity:1;stroke-width:1.32026"
         id="path2"
         sodipodi:type="arc"
         sodipodi:cx="137.3956"
         sodipodi:cy="100.6773"
         sodipodi:rx="40.876991"
         sodipodi:ry="34.557842"
         sodipodi:start="5.8746222"
         sodipodi:end="5.8716078"
         sodipodi:open="true"
         sodipodi:arc-type="arc"
         d="M 174.90811,86.947776 A 40.876991,34.557842 0 0 1 153.66393,132.38042 40.876991,34.557842 0 0 1 99.907605,114.45461 40.876991,34.557842 0 0 1 121.07077,68.994943 40.876991,34.557842 0 0 1 174.85899,86.852241" /><path
         style="fill:#efefef;fill-opacity:1;stroke-width:1.32026"
         id="path2-0"
         sodipodi:type="arc"
         sodipodi:cx="137.3956"
         sodipodi:cy="100.6773"
         sodipodi:rx="40.876991"
         sodipodi:ry="34.557842"
         sodipodi:start="1.5520496"
         sodipodi:end="4.7194504"
         sodipodi:open="true"
         sodipodi:arc-type="arc"
         d="m 138.16186,135.22907 a 40.876991,34.557842 0 0 1 -35.95763,-16.97015 40.876991,34.557842 0 0 1 -0.2406,-34.814393 40.876991,34.557842 0 0 1 35.72062,-17.324208" /><path
         style="fill:#666666;fill-opacity:1;stroke-width:0.827926"
         id="path3-7"
         sodipodi:type="arc"
         sodipodi:cx="109.91732"
         sodipodi:cy="120.86901"
         sodipodi:rx="11.686519"
         sodipodi:ry="8.7307816"
         sodipodi:start="5.8746222"
         sodipodi:end="5.8716078"
         sodipodi:open="true"
         sodipodi:arc-type="arc"
         d="m 120.64195,117.40035 a 11.686519,8.7307816 0 0 1 -6.0736,11.47822 11.686519,8.7307816 0 0 1 -15.368652,-4.52883 11.686519,8.7307816 0 0 1 6.050442,-11.48504 11.686519,8.7307816 0 0 1 15.37777,4.51151"
         transform="matrix(0.99068725,-0.13615716,0.08342784,0.99651382,0,0)" /><path
         style="fill:#424242;fill-opacity:1;stroke-width:0.827926"
         id="path3-7-1"
         sodipodi:type="arc"
         sodipodi:cx="-175.28038"
         sodipodi:cy="59.770271"
         sodipodi:rx="11.686519"
         sodipodi:ry="8.7307816"
         sodipodi:start="5.8746222"
         sodipodi:end="5.8716078"
         sodipodi:open="true"
         sodipodi:arc-type="arc"
         d="m -164.55575,56.301609 a 11.686519,8.7307816 0 0 1 -6.0736,11.47822 11.686519,8.7307816 0 0 1 -15.36865,-4.528824 11.686519,8.7307816 0 0 1 6.05044,-11.485045 11.686519,8.7307816 0 0 1 15.37777,4.511513"
         transform="matrix(-0.96308382,-0.2692017,-0.21774902,0.9760048,0,0)" /><path
         style="fill:#222222;fill-opacity:1;stroke-width:1.133"
         d="m 134.31819,113.13539 7.30321,-0.0425 1.22294,0.64294 0.84968,0.81638 0.25837,1.33662 -0.2783,1.31366 -3.35623,4.0779 -1.0294,0.60359 -1.2086,0.33587 -1.47927,-0.32625 -0.66006,-0.51451 -3.62035,-4.31151 -0.29008,-1.21171 0.13517,-1.33993 0.88077,-0.89033 z"
         id="path4"
         sodipodi:nodetypes="cccccccccccccccc" /><path
         style="fill:#000000;fill-opacity:1;stroke-width:0.805689"
         id="path5"
         sodipodi:type="arc"
         sodipodi:cx="121.28812"
         sodipodi:cy="105.72807"
         sodipodi:rx="2.1063831"
         sodipodi:ry="2.1063831"
         sodipodi:start="4.806867"
         sodipodi:end="4.7194504"
         sodipodi:open="true"
         sodipodi:arc-type="arc"
         d="m 121.48683,103.63108 a 2.1063831,2.1063831 0 0 1 1.90212,2.24983 2.1063831,2.1063831 0 0 1 -2.20773,1.95083 2.1063831,2.1063831 0 0 1 -1.99861,-2.16457 2.1063831,2.1063831 0 0 1 2.12038,-2.04543" /><path
         style="fill:#000000;fill-opacity:1;stroke-width:0.805689"
         id="path5-8"
         sodipodi:type="arc"
         sodipodi:cx="152.41074"
         sodipodi:cy="105.33781"
         sodipodi:rx="2.1063831"
         sodipodi:ry="2.1063831"
         sodipodi:start="4.806867"
         sodipodi:end="4.7194504"
         sodipodi:open="true"
         sodipodi:arc-type="arc"
         d="m 152.60945,103.24082 a 2.1063831,2.1063831 0 0 1 1.90212,2.24983 2.1063831,2.1063831 0 0 1 -2.20773,1.95083 2.1063831,2.1063831 0 0 1 -1.99861,-2.16457 2.1063831,2.1063831 0 0 1 2.12038,-2.04543" /></g></g></svg>
