<?xml version="1.0" encoding="UTF-8" standalone="no"?>
<!-- Created with Inkscape (http://www.inkscape.org/) -->

<svg
   width="162.87491mm"
   height="73.201439mm"
   viewBox="0 0 162.87492 73.201439"
   version="1.1"
   id="svg5"
   xml:space="preserve"
   inkscape:version="1.2.2 (b0a8486541, 2022-12-01)"
   sodipodi:docname="mountain.svg"
   xmlns:inkscape="http://www.inkscape.org/namespaces/inkscape"
   xmlns:sodipodi="http://sodipodi.sourceforge.net/DTD/sodipodi-0.dtd"
   xmlns="http://www.w3.org/2000/svg"
   xmlns:svg="http://www.w3.org/2000/svg"><sodipodi:namedview
     id="namedview7"
     pagecolor="#ffffff"
     bordercolor="#000000"
     borderopacity="0.25"
     inkscape:showpageshadow="2"
     inkscape:pageopacity="0.0"
     inkscape:pagecheckerboard="0"
     inkscape:deskcolor="#d1d1d1"
     inkscape:document-units="mm"
     showgrid="false"
     inkscape:zoom="2.049876"
     inkscape:cx="153.42391"
     inkscape:cy="195.13375"
     inkscape:window-width="2560"
     inkscape:window-height="1408"
     inkscape:window-x="1440"
     inkscape:window-y="926"
     inkscape:window-maximized="1"
     inkscape:current-layer="layer1" /><defs
     id="defs2"><marker
       style="overflow:visible"
       id="marker3139"
       refX="0"
       refY="0"
       orient="auto-start-reverse"
       inkscape:stockid="TriangleStart"
       markerWidth="5.3244081"
       markerHeight="6.155385"
       viewBox="0 0 5.3244081 6.1553851"
       inkscape:isstock="true"
       inkscape:collect="always"
       preserveAspectRatio="xMidYMid"><path
         transform="scale(0.5)"
         style="fill:context-stroke;fill-rule:evenodd;stroke:context-stroke;stroke-width:1pt"
         d="M 5.77,0 -2.88,5 V -5 Z"
         id="path3137" /></marker><inkscape:path-effect
       effect="spiro"
       id="path-effect3117"
       is_visible="true"
       lpeversion="1" /><marker
       style="overflow:visible"
       id="marker3049"
       refX="0"
       refY="0"
       orient="auto-start-reverse"
       inkscape:stockid="TriangleStart"
       markerWidth="5.3244081"
       markerHeight="6.155385"
       viewBox="0 0 5.3244081 6.1553851"
       inkscape:isstock="true"
       inkscape:collect="always"
       preserveAspectRatio="xMidYMid"><path
         transform="scale(0.5)"
         style="fill:context-stroke;fill-rule:evenodd;stroke:context-stroke;stroke-width:1pt"
         d="M 5.77,0 -2.88,5 V -5 Z"
         id="path3047" /></marker><inkscape:path-effect
       effect="spiro"
       id="path-effect3033"
       is_visible="true"
       lpeversion="1" /><marker
       style="overflow:visible"
       id="marker2987"
       refX="0"
       refY="0"
       orient="auto-start-reverse"
       inkscape:stockid="TriangleStart"
       markerWidth="5.3244081"
       markerHeight="6.155385"
       viewBox="0 0 5.3244081 6.1553851"
       inkscape:isstock="true"
       inkscape:collect="always"
       preserveAspectRatio="xMidYMid"><path
         transform="scale(0.5)"
         style="fill:context-stroke;fill-rule:evenodd;stroke:context-stroke;stroke-width:1pt"
         d="M 5.77,0 -2.88,5 V -5 Z"
         id="path2985" /></marker><inkscape:path-effect
       effect="spiro"
       id="path-effect2383"
       is_visible="true"
       lpeversion="1" /><marker
       style="overflow:visible"
       id="TriangleStart"
       refX="0"
       refY="0"
       orient="auto-start-reverse"
       inkscape:stockid="TriangleStart"
       markerWidth="5.3244081"
       markerHeight="6.155385"
       viewBox="0 0 5.3244081 6.1553851"
       inkscape:isstock="true"
       inkscape:collect="always"
       preserveAspectRatio="xMidYMid"><path
         transform="scale(0.5)"
         style="fill:context-stroke;fill-rule:evenodd;stroke:context-stroke;stroke-width:1pt"
         d="M 5.77,0 -2.88,5 V -5 Z"
         id="path135" /></marker><inkscape:path-effect
       effect="spiro"
       id="path-effect1789"
       is_visible="true"
       lpeversion="1" /><clipPath
       clipPathUnits="userSpaceOnUse"
       id="clipPath3348"><rect
         style="fill:none;fill-opacity:1;stroke:#cfc91d;stroke-width:1.02;stroke-dasharray:none;stroke-opacity:1"
         id="rect3350"
         width="172.08154"
         height="80.692932"
         x="8.8236666"
         y="134.00571" /></clipPath></defs><g
     inkscape:label="Layer 1"
     inkscape:groupmode="layer"
     id="layer1"
     transform="translate(-14.415365,-139.00959)"><path
       style="fill:#ffffff;fill-opacity:1;stroke-width:0.124808"
       d="m 83.122363,192.40998 c -3.329263,-0.0494 -10.490142,-0.15218 -15.913065,-0.22834 -5.422923,-0.0761 -11.095463,-0.16624 -12.605644,-0.20019 -1.510181,-0.034 -5.104661,-0.0666 -7.987734,-0.0726 -2.883073,-0.006 -5.157705,-0.0408 -5.054738,-0.0774 0.637386,-0.22654 6.96089,-2.82944 7.114076,-2.92831 0.13415,-0.0866 0.08109,-0.10086 -0.187213,-0.0504 -0.846984,0.15943 -7.700177,0.43203 -12.543239,0.49893 -2.848751,0.0393 -7.229524,0.10396 -9.735052,0.14358 -2.505528,0.0396 -4.527423,0.0443 -4.493101,0.0104 0.08744,-0.0863 5.590656,-2.58855 6.802056,-3.09282 0.578548,-0.24083 0.90552,-0.43449 0.777462,-0.46047 -0.121552,-0.0247 -1.525646,0.042 -3.120209,0.14817 -1.594563,0.10616 -4.134807,0.22369 -5.644988,0.26119 -1.510181,0.0375 -3.503994,0.0985 -4.430696,0.13549 l -1.684913,0.0673 1.872125,-0.9254 c 1.029669,-0.50897 3.161146,-1.69668 4.736617,-2.63934 4.503421,-2.69457 6.054593,-3.55661 8.929898,-4.96268 2.400544,-1.17391 3.163542,-1.63342 7.238884,-4.35966 4.436573,-2.96788 8.216278,-5.83143 9.610243,-7.28082 0.308901,-0.32119 0.702047,-0.65646 0.873659,-0.74505 0.171611,-0.0886 1.070231,-0.22704 1.996933,-0.30766 0.926702,-0.0806 1.897047,-0.16698 2.156323,-0.19191 0.342388,-0.0329 0.957255,-0.36838 2.24655,-1.22565 0.976328,-0.64917 2.50527,-1.58966 3.397649,-2.08998 0.89238,-0.50032 2.154621,-1.28013 2.80498,-1.73291 1.751375,-1.2193 1.90486,-1.30468 2.297444,-1.27801 0.434934,0.0295 0.64381,0.17252 2.935444,2.00941 3.481678,2.79079 4.860272,3.87454 4.928646,3.87454 0.07223,0 2.207706,-2.49443 4.327359,-5.05474 0.68196,-0.82374 2.083565,-2.63481 3.114678,-4.0246 l 1.87475,-2.5269 1.317157,-0.63057 c 1.202635,-0.57575 1.44929,-0.75835 2.836885,-2.1002 0.835851,-0.8083 2.895741,-2.61066 4.577533,-4.00526 2.101904,-1.74296 3.779608,-3.26913 5.366759,-4.88202 2.351261,-2.38938 2.637694,-2.59803 3.338624,-2.43198 0.649202,0.15379 3.896465,3.6269 11.180945,11.95855 1.90553,2.17947 3.48753,3.96267 3.51555,3.96267 0.028,0 0.37454,-0.19054 0.77005,-0.42341 l 0.71911,-0.42341 0.64665,0.57942 c 2.27132,2.03517 4.20426,3.792 5.78701,5.25973 2.01327,1.86697 7.69579,7.01237 8.33635,7.54839 l 0.40882,0.3421 0.90167,-0.47129 c 0.49591,-0.25921 2.53041,-1.37896 4.52111,-2.48834 1.99069,-1.10938 4.24272,-2.34713 5.00451,-2.75056 1.34485,-0.71221 1.39938,-0.72923 1.87759,-0.58595 0.65256,0.19551 1.94146,1.00485 4.62999,2.9073 2.11182,1.49435 4.6343,3.14872 8.66023,5.67984 l 1.8255,1.14769 1.56749,-0.43819 c 0.91273,-0.25515 1.68815,-0.40642 1.85635,-0.36214 0.31619,0.0832 3.04322,1.94501 7.6877,5.24847 1.20752,0.85887 3.34979,2.27688 4.89478,3.23996 0.44619,0.27813 1.8222,1.02874 3.0578,1.66803 l 2.24656,1.16233 -1.68492,-0.0742 c -1.45257,-0.064 -3.99166,-0.21308 -8.54937,-0.50197 l -1.12327,-0.0712 1.06087,0.45335 c 0.58348,0.24934 1.6225,0.67941 2.30895,0.95571 0.68645,0.2763 1.27362,0.5276 1.30482,0.55844 0.0711,0.0703 -8.04718,-0.0627 -8.98053,-0.14713 -0.67232,-0.0608 -7.50887,-1.4319 -8.3539,-1.67541 -0.2357,-0.0679 -0.45568,-0.0964 -0.48882,-0.0632 -0.0735,0.0735 -0.20184,-0.001 1.29181,0.75239 0.68645,0.34635 2.65218,1.38133 4.36829,2.29997 1.71612,0.91864 3.99075,2.09552 5.05474,2.6153 l 1.93453,0.94504 -5.71346,0.0763 c -3.14241,0.042 -5.73926,0.10207 -5.77078,0.13358 -0.0315,0.0315 0.48124,0.23947 1.13943,0.46213 0.65819,0.22265 1.48588,0.53704 1.8393,0.69864 l 0.64259,0.29381 -0.95037,0.0102 c -0.5227,0.006 -4.58732,-0.10468 -9.03249,-0.2451 -4.44518,-0.14043 -8.10869,-0.22877 -8.14115,-0.19631 -0.0325,0.0325 0.12879,0.11213 0.35831,0.17706 0.22954,0.0649 1.57926,0.62871 2.99938,1.25286 1.42013,0.62415 2.72648,1.17107 2.90298,1.21537 0.81921,0.20561 0.30638,0.3032 -1.63981,0.31206 -1.15384,0.005 -2.18214,0.0254 -2.28511,0.0447 -0.10297,0.0193 -4.34333,0.0743 -9.42303,0.12203 -5.0797,0.0478 -12.80222,0.13831 -17.16115,0.2012 -8.92813,0.12881 -23.025408,0.12444 -32.075747,-0.01 z m -22.671687,-6.21127 c 3.203852,-2.61603 6.618201,-5.35256 7.569876,-6.06711 1.396449,-1.04849 1.720662,-1.43168 3.650314,-4.31425 2.829146,-4.22627 5.144739,-7.63449 6.274945,-9.23582 3.0564,-4.33044 6.04352,-8.59021 6.64741,-9.4795 0.514146,-0.75714 0.542769,-0.77954 0.478359,-0.37443 -0.288994,1.81768 -0.343313,2.26562 -0.282159,2.32678 0.07156,0.0716 1.881292,-3.5146 2.487908,-4.93003 0.299802,-0.69953 0.587751,-0.92904 0.587751,-0.46847 0,0.0905 0.174341,0.59627 0.387426,1.12401 0.220154,0.54525 0.358937,1.07727 0.321441,1.23224 -0.03629,0.14999 -0.656026,1.95757 -1.377192,4.01683 l -1.311207,3.74412 -3.659345,3.62234 c -2.01264,1.99228 -5.484667,5.30454 -7.715616,7.36056 -2.23095,2.05603 -4.344942,4.02697 -4.697762,4.37988 -0.588746,0.5889 -2.768445,3.67076 -2.596206,3.67076 0.04106,0 0.477438,-0.35999 0.96973,-0.79998 1.980057,-1.76968 6.376057,-5.0558 6.54174,-4.89012 0.0383,0.0383 0.0095,0.73032 -0.06389,1.53782 -0.07345,0.80749 -0.118993,1.48271 -0.10122,1.50049 0.01777,0.0178 0.270841,-0.36758 0.562369,-0.85633 1.503206,-2.52016 3.491771,-5.35736 4.494816,-6.413 0.981998,-1.03349 1.449553,-1.53422 3.359933,-3.59833 0.367941,-0.39755 0.686738,-0.70507 0.708437,-0.68337 0.0217,0.0217 -0.321213,1.49475 -0.762022,3.27345 -0.440811,1.77869 -0.782727,3.25274 -0.759816,3.27565 0.02291,0.0229 0.200251,-0.25348 0.394086,-0.61421 0.193835,-0.36073 0.698732,-1.21751 1.121992,-1.90395 1.259424,-2.04254 1.380247,-2.2916 2.040189,-4.20551 0.347841,-1.00879 0.748624,-2.0619 0.89063,-2.34025 0.386513,-0.75763 2.180273,-3.07553 3.299321,-4.26339 l 0.986962,-1.04765 -0.09349,0.49924 c -0.223311,1.19249 -2.055575,5.67134 -4.024119,9.83669 -0.448158,0.94829 -0.788483,1.75051 -0.756278,1.78271 0.03221,0.0322 0.243289,-0.15394 0.469075,-0.41366 0.690493,-0.79428 4.254688,-4.43147 4.296949,-4.38495 0.02182,0.024 -0.06757,0.57722 -0.198641,1.22934 -0.307268,1.52877 -0.268641,1.68775 0.241477,0.99389 0.606862,-0.82545 3.202744,-3.72447 3.242762,-3.62144 0.147795,0.38052 -5.598834,11.62189 -7.426429,14.52734 -0.166,0.2639 -0.278181,0.50346 -0.249288,0.53236 0.108545,0.10854 5.072373,-4.83934 6.900341,-6.87817 1.911358,-2.13185 3.174623,-3.43469 3.174623,-3.27409 0,0.0475 -0.224655,1.04344 -0.499234,2.21322 -0.274578,1.16977 -0.499233,2.19261 -0.499233,2.27297 0,0.0804 0.185521,-0.15949 0.412269,-0.533 0.226748,-0.37351 0.721937,-1.1565 1.100418,-1.73997 0.378481,-0.58348 0.817168,-1.27444 0.974858,-1.53547 0.157692,-0.26103 0.308267,-0.45304 0.33461,-0.4267 0.02635,0.0264 -0.0948,0.46457 -0.26921,0.97383 -0.922059,2.69233 -2.557736,8.5862 -2.550111,9.18887 0.0016,0.12321 0.188716,-0.11295 0.415903,-0.52482 0.227187,-0.41187 0.646895,-1.15389 0.932685,-1.64893 0.28579,-0.49504 0.659762,-1.21696 0.831049,-1.60427 0.653096,-1.47677 2.307402,-6.91316 2.31254,-7.59949 0.0044,-0.59407 0.181088,-0.59014 1.011708,0.0225 1.24075,0.91515 1.98178,1.42791 1.98178,1.37131 0,-0.0282 -0.45448,-0.99883 -1.00995,-2.15685 -0.98849,-2.06076 -1.21217,-2.67209 -2.298518,-6.28204 -0.05256,-0.17466 1.043358,0.85529 2.625718,2.46765 1.49376,1.52208 2.73922,2.74413 2.76769,2.71566 0.16098,-0.16098 -3.13743,-5.04338 -4.80192,-7.10793 -0.432922,-0.53698 -0.990672,-1.29519 -1.239443,-1.68492 -0.24877,-0.38972 -0.756904,-1.17859 -1.129186,-1.75304 l -0.676874,-1.04444 -0.433108,0.73242 c -0.886939,1.49991 -3.727958,5.65058 -3.762302,5.49666 -0.0196,-0.0878 0.52309,-2.40323 1.205973,-5.14534 0.682882,-2.7421 1.311208,-5.32263 1.396278,-5.7345 l 0.154674,-0.74885 0.793806,1.62251 0.793806,1.62251 -0.06565,-2.37136 c -0.03611,-1.30425 -0.09481,-2.98916 -0.130449,-3.74425 -0.05391,-1.14225 -0.03789,-1.33333 0.09534,-1.13738 0.08808,0.12954 0.352084,0.52268 0.586681,0.87366 0.696764,1.04243 1.772843,2.47423 1.822326,2.42475 0.0253,-0.0253 -0.206101,-0.9712 -0.514233,-2.10198 -0.308131,-1.13079 -0.69825,-2.81419 -0.866932,-3.74089 -0.448635,-2.46471 -0.512573,-2.74602 -0.796824,-3.50575 -0.521521,-1.39389 -0.499953,-1.40371 -1.532042,0.69756 -1.40431,2.85908 -2.997768,5.58288 -4.741264,8.10455 -0.04775,0.0691 -0.117887,0.0945 -0.155856,0.0565 -0.139878,-0.13988 2.900591,-6.74299 3.186138,-6.91947 0.06289,-0.0389 0.114343,-0.12959 0.114343,-0.20161 0,-0.22145 -2.117123,1.76533 -6.614843,6.20757 -2.368238,2.33903 -4.502461,4.3701 -4.742717,4.51349 -0.240256,0.14338 -0.726339,0.35466 -1.080183,0.46951 l -0.643352,0.20881 -1.20455,2.01766 c -0.860756,1.44179 -1.827454,2.80134 -3.387012,4.76344 -2.042123,2.56922 -3.401498,4.49076 -3.269989,4.62227 0.03138,0.0314 1.06417,-0.91156 2.295097,-2.0954 2.845946,-2.73709 4.330306,-4.04222 4.390823,-3.86067 0.109915,0.32974 -2.24224,5.7353 -2.588854,5.94952 -0.08275,0.0511 -0.128356,-0.19991 -0.128356,-0.70648 v -0.7858 l -1.778519,1.74607 c -0.978186,0.96033 -2.369593,2.32197 -3.092017,3.02586 l -1.313498,1.2798 -0.83202,-0.69061 -0.83202,-0.69061 -0.490985,0.84574 c -0.27004,0.46516 -0.614283,1.08988 -0.764983,1.38828 -0.150699,0.29839 -0.30282,0.51371 -0.338046,0.47848 -0.06807,-0.0681 0.220566,-1.58351 0.509445,-2.67472 0.09541,-0.36039 0.144597,-0.65525 0.109314,-0.65525 -0.03528,0 -0.718205,0.63608 -1.517605,1.41352 -3.092867,3.00787 -5.279419,5.01459 -6.68959,6.13941 -0.61885,0.49362 -0.640191,0.44873 -0.119634,-0.25164 0.153062,-0.20593 1.015493,-1.60111 1.916515,-3.10038 0.901021,-1.49928 1.831256,-3.0126 2.06719,-3.36294 0.235934,-0.35034 0.404504,-0.66145 0.3746,-0.69135 -0.0299,-0.0299 -0.575918,0.41976 -1.213367,0.99926 -0.637447,0.57949 -2.338434,2.05683 -3.779971,3.28296 -1.441536,1.22614 -2.748578,2.34287 -2.904538,2.48162 l -0.283564,0.25228 -1.044512,-0.27395 c -0.574482,-0.15067 -1.099709,-0.27395 -1.16717,-0.27395 -0.06746,0 -0.565021,0.29966 -1.105687,0.66591 -1.790405,1.21284 -13.771525,8.73617 -14.629032,9.18605 -0.160329,0.0841 -0.264993,0.17945 -0.232587,0.21186 0.107388,0.10738 5.713713,-2.31984 10.982895,-4.75498 2.04553,-0.94534 3.745127,-1.69282 3.776881,-1.66106 0.06895,0.0689 -0.382924,0.63394 -1.848451,2.31122 -0.600641,0.68743 -1.092074,1.28529 -1.092074,1.32859 0,0.14798 7.424491,-3.70304 8.09089,-4.19667 0.365636,-0.27085 0.694217,-0.46302 0.73018,-0.42706 0.05924,0.0592 -0.415544,1.78322 -0.658452,2.39088 -0.07755,0.19401 0.01002,0.15889 0.393102,-0.15761 0.271088,-0.22398 1.160602,-0.92603 1.9767,-1.56011 0.816097,-0.63408 1.770881,-1.38102 2.121742,-1.65986 1.358328,-1.07953 2.572458,-1.92226 2.572458,-1.78556 0,0.3258 -4.579653,8.38132 -6.477223,11.39331 -0.418914,0.66494 -0.761662,1.23413 -0.761662,1.26486 0,0.15411 0.321193,-0.0845 2.414792,-1.79398 z m 53.412504,0.6984 c -1.16041,-1.50741 -2.80959,-3.46183 -4.39948,-5.21377 -1.05272,-1.16 -4.58902,-4.97565 -4.91602,-5.30435 -0.0683,-0.0686 0.0194,0.12792 0.19478,0.43683 0.40422,0.71179 2.34616,4.61015 3.22599,6.47603 0.66523,1.41076 0.67134,1.41862 0.82409,1.06087 0.0846,-0.19823 0.15643,-0.5336 0.15952,-0.74525 0.0108,-0.74105 -0.0191,-0.75914 2.94429,1.77564 0.8955,0.76596 1.70383,1.48382 1.79631,1.59524 0.19418,0.23398 0.35441,0.15764 0.17052,-0.0812 z m -88.839105,-3.54806 c 0.823735,-0.30683 2.138746,-0.80713 2.922246,-1.11179 0.783501,-0.30465 1.505484,-0.55392 1.604407,-0.55392 0.235228,0 -0.2559,0.53337 -0.82017,0.89071 -0.450319,0.28518 -0.44513,0.48464 0.0068,0.25959 0.154347,-0.0769 0.926514,-0.43011 1.715927,-0.78498 0.789413,-0.35486 1.926729,-0.8917 2.527369,-1.19296 0.60064,-0.30127 1.090155,-0.50507 1.087811,-0.4529 -0.0023,0.0522 -0.110593,0.54357 -0.240552,1.09199 -0.129958,0.54843 -0.219588,1.01383 -0.199177,1.03425 0.07215,0.0721 1.381338,-0.49456 2.298488,-0.99494 0.826783,-0.45107 4.40888,-2.61573 5.676659,-3.4304 0.263715,-0.16946 0.453362,-0.33424 0.421438,-0.36616 -0.03193,-0.0319 -0.487332,0.11248 -1.012015,0.32091 -1.207545,0.47969 -4.487292,1.50138 -4.566436,1.42252 -0.03279,-0.0327 0.725421,-0.8124 1.684913,-1.73272 1.095091,-1.05038 1.662118,-1.67479 1.52315,-1.6773 -0.121762,-0.002 -1.759885,0.77659 -3.640275,1.73062 -4.416692,2.24084 -4.781307,2.38639 -5.75621,2.29769 l -0.756475,-0.0688 -1.989309,1.2425 c -1.09412,0.68337 -2.536906,1.56402 -3.206191,1.957 -1.11581,0.65517 -1.541877,0.98128 -0.998466,0.76422 0.120128,-0.048 0.892379,-0.33828 1.716115,-0.64511 z m 105.715475,-3.37169 c -0.37909,-1.10066 -0.68925,-2.03575 -0.68925,-2.07797 0,-0.0735 3.34352,1.82921 3.90351,2.22145 0.45684,0.31998 0.49308,0.21359 0.11612,-0.34083 -0.36676,-0.53942 -1.52346,-2.62275 -1.52346,-2.74391 0,-0.11223 1.88088,0.47331 2.87059,0.89365 1.22392,0.51981 2.54375,1.23481 3.84491,2.08295 0.57816,0.37686 1.0675,0.66823 1.08743,0.64749 0.0199,-0.0207 -0.39369,-0.60961 -0.91915,-1.30858 -1.11766,-1.48672 -2.29083,-3.15984 -2.21566,-3.15984 0.0289,0 1.953,0.95123 4.27583,2.11384 4.09955,2.05187 7.52953,3.67017 7.60949,3.59021 0.0501,-0.0501 -0.79529,-0.60121 -4.57184,-2.98037 -5.15868,-3.24987 -8.97407,-5.47497 -9.37088,-5.46502 -0.0973,0.002 -0.76668,0.44546 -1.48744,0.98448 l -1.31049,0.98005 -0.56164,-0.44988 c -0.3089,-0.24743 -2.2861,-1.92605 -4.39379,-3.73027 -2.10768,-1.80421 -3.86054,-3.28039 -3.89525,-3.28039 -0.0347,0 0.20141,0.35284 0.52472,0.78409 0.32331,0.43125 1.62687,2.31359 2.89679,4.18299 1.26993,1.8694 2.39198,3.51936 2.49345,3.66657 0.14458,0.20978 -0.0174,0.15371 -0.74885,-0.25924 -0.85826,-0.48452 -4.8535,-2.50841 -4.9517,-2.50841 -0.0484,0 4.47728,4.98251 6.38057,7.02471 0.68993,0.74027 1.27034,1.29813 1.28982,1.23969 0.0195,-0.0584 -0.27475,-1.00679 -0.65383,-2.10746 z m 18.85905,-0.99588 c 0.0727,-0.28977 0.002,-0.86183 -0.28586,-2.29915 l -0.0772,-0.38595 1.1721,0.58839 c 1.46783,0.73685 3.32456,1.77296 3.71631,2.07381 0.1637,0.12573 0.34271,0.22859 0.3978,0.22859 0.0551,0 -0.44969,-0.85649 -1.12174,-1.90332 -0.67203,-1.04683 -1.20887,-1.91994 -1.19295,-1.94023 0.0385,-0.0491 2.29354,1.18496 4.81726,2.63636 1.12416,0.6465 2.06755,1.1543 2.09642,1.12843 0.0885,-0.0793 -0.47325,-0.63454 -2.43215,-2.40387 -2.66029,-2.40284 -4.85954,-4.13221 -5.25496,-4.13221 -0.0382,0 -0.0315,0.25274 0.0148,0.56164 0.0578,0.38567 0.0398,0.56164 -0.0577,0.56164 -0.078,0 -0.51675,-0.21781 -0.97491,-0.48402 -0.45817,-0.26621 -1.19809,-0.66576 -1.64428,-0.88788 -0.44619,-0.22213 -1.1342,-0.62255 -1.52891,-0.88984 -0.3947,-0.26728 -0.71764,-0.46121 -0.71764,-0.43095 0,0.0303 0.38619,0.63786 0.85822,1.3502 1.00658,1.51907 1.29292,2.0452 1.23985,2.27816 -0.024,0.10551 -1.10167,-0.63203 -2.83881,-1.94291 -1.54004,-1.16213 -2.8527,-2.11297 -2.91702,-2.11297 -0.0643,0 -0.0399,0.10709 0.0543,0.23797 0.0942,0.13088 0.76096,1.03896 1.48172,2.01795 0.72077,0.97899 1.78229,2.43045 2.35894,3.22546 2.57602,3.5515 2.6579,3.63592 2.8364,2.9247 z m 14.27477,-1.61189 c 0,-0.1272 -2.88426,-3.20339 -3.94468,-4.20716 l -1.03898,-0.98348 -0.94111,0.20938 c -1.11119,0.24721 -1.23997,0.0781 1.30686,1.71608 0.9267,0.59599 2.30271,1.58671 3.0578,2.2016 1.28937,1.04995 1.56011,1.23452 1.56011,1.06358 z M 44.238242,174.16323 c 1.862247,-1.07051 2.512407,-1.53931 3.670987,-2.64695 l 0.918884,-0.87848 -0.04964,1.27929 c -0.0273,0.7036 -0.02008,1.27928 0.01604,1.27928 0.03612,0 1.175423,-1.1087 2.531781,-2.46379 1.356359,-1.35509 2.466107,-2.39083 2.466107,-2.30165 0,0.23999 -0.706661,2.99374 -0.931634,3.63044 -0.106869,0.30244 -0.168801,0.5754 -0.137629,0.60658 0.03117,0.0312 0.35796,-0.22827 0.726194,-0.57652 0.445926,-0.42174 0.996044,-1.187 1.647279,-2.2915 0.537769,-0.91206 1.205941,-1.9672 1.484825,-2.34474 0.617246,-0.83561 1.837668,-2.29497 1.9621,-2.34624 0.111744,-0.046 1.614091,2.33614 1.614091,2.55937 0,0.41241 0.261682,0.0759 0.626704,-0.80597 0.220209,-0.532 0.416804,-0.98545 0.436878,-1.00767 0.05402,-0.0598 0.837038,0.3528 1.089362,0.57403 0.281563,0.24688 0.277609,0.19324 -0.09361,-1.27014 -0.494946,-1.95113 -0.484984,-1.95349 1.129592,-0.26719 0.785938,0.82086 1.428979,1.45068 1.428979,1.3996 0,-0.0511 -0.505534,-0.93138 -1.123409,-1.95622 -0.617875,-1.02484 -1.239693,-2.16013 -1.381818,-2.52287 -0.142125,-0.36274 -0.306228,-0.70855 -0.364675,-0.76847 -0.128522,-0.13177 -0.495315,0.11706 -2.372049,1.60921 -1.744809,1.38726 -1.826853,1.43273 -2.584999,1.43273 -0.704661,0 -0.757483,0.0324 -2.554415,1.56495 -0.733018,0.62519 -1.65972,1.38396 -2.059338,1.68617 -0.399618,0.30221 -1.246093,0.99095 -1.881055,1.53053 -0.634963,0.53959 -1.154478,0.90996 -1.154478,0.82306 0,-0.0869 0.14617,-0.76931 0.324822,-1.51646 0.178652,-0.74716 0.303497,-1.37979 0.277435,-1.40585 -0.02606,-0.0261 -0.298602,0.008 -0.60564,0.0762 -0.465615,0.10306 -0.755011,0.31753 -1.743934,1.29242 -0.678967,0.66934 -1.661486,1.47313 -2.299043,1.88083 -1.982226,1.26758 -5.892786,4.13998 -5.784165,4.2486 0.02366,0.0237 0.574335,-0.23067 1.223723,-0.56517 1.313413,-0.67654 4.882836,-2.25155 5.102649,-2.25155 0.07752,0 -0.731082,0.88248 -1.796893,1.96107 -1.065811,1.07859 -1.937838,1.98367 -1.937838,2.01129 0,0.0276 0.15445,-0.0513 0.343223,-0.17533 0.188773,-0.12405 1.014345,-0.61133 1.834604,-1.08286 z m 88.936388,-4.14947 c 0.50233,-0.75509 0.9532,-1.41981 1.00194,-1.47715 0.0487,-0.0573 0.19138,0.57087 0.31699,1.39603 l 0.22838,1.5003 0.6957,-1.27123 c 0.73609,-1.34505 2.10469,-3.69406 2.25754,-3.87475 0.0499,-0.059 0.0591,0.6938 0.0203,1.67299 -0.0492,1.24203 -0.0304,1.75556 0.0622,1.69836 0.073,-0.0451 0.45747,-0.6435 0.85445,-1.32977 0.39698,-0.68628 0.76465,-1.24778 0.81706,-1.24778 0.17279,0 3.02007,1.96686 4.03797,2.78937 0.54916,0.44375 1.01962,0.78621 1.04547,0.76104 0.0259,-0.0252 -0.17532,-0.31481 -0.44704,-0.64362 -1.58566,-1.91874 -2.30672,-3.12896 -3.34927,-5.62137 -0.2656,-0.63496 -0.54475,-1.15447 -0.62033,-1.15447 -0.1455,0 -2.31708,1.44875 -3.36848,2.24726 -0.34322,0.26066 -0.92298,0.64891 -1.28837,0.86277 -0.59287,0.34701 -0.65573,0.36176 -0.58443,0.1371 0.097,-0.3056 -0.034,-0.31966 -0.42522,-0.0457 -0.16183,0.11334 -0.63767,0.37107 -1.05744,0.57273 -1.45671,0.6998 -3.56761,1.99681 -3.48245,2.13975 0.13103,0.21996 1.42429,1.8505 1.76991,2.23151 0.37677,0.41537 0.2994,0.48397 1.51508,-1.34342 z m -16.2919,-1.77852 c -0.43133,-1.28708 -1.1065,-3.22673 -1.50039,-4.31033 -0.3939,-1.0836 -0.68927,-1.99708 -0.65639,-2.02996 0.12065,-0.12065 1.26378,0.62068 1.98099,1.28469 0.40575,0.37565 0.73772,0.61057 0.73772,0.52204 0,-0.0885 -0.11916,-0.60257 -0.2648,-1.14233 -0.14565,-0.53976 -0.23428,-1.01191 -0.19696,-1.04922 0.0618,-0.0618 2.01398,1.03409 4.29088,2.40867 0.49287,0.29754 0.93881,0.54099 0.99096,0.54099 0.11202,0 0.0936,-0.0177 -3.19757,-3.06212 -1.40722,-1.30173 -3.05001,-2.84036 -3.65065,-3.41917 -1.03001,-0.99258 -1.09207,-1.03247 -1.09207,-0.70203 0,0.19269 -0.0864,0.89086 -0.192,1.55148 -0.10559,0.66063 -0.21979,1.38007 -0.25376,1.59876 l -0.0618,0.39761 -2.24789,-1.68292 c -1.23633,-0.92561 -2.33801,-1.71751 -2.44816,-1.75978 -0.12134,-0.0466 -0.004,0.21407 0.29704,0.66127 0.27352,0.40597 1.18964,1.83331 2.03582,3.17188 1.85977,2.94194 6.08292,9.36063 6.1588,9.36063 0.0299,0 -0.29847,-1.05307 -0.72979,-2.34016 z m -8.36051,-1.90113 c -0.2598,-0.42037 -7.25276,-6.24261 -7.49786,-6.24261 -0.0935,0 1.16078,1.7867 1.68498,2.40024 0.3689,0.43177 3.79902,2.80462 5.31229,3.67488 0.56487,0.32484 0.60643,0.33875 0.50059,0.16749 z"
       id="path3433" /><path
       d="m 50.748129,202.0485 c 0,-0.60329 -0.538166,-1.09334 -1.20069,-1.09334 -0.662523,0 -1.20069,0.49005 -1.20069,1.09334 0,0.6033 0.538167,1.09335 1.20069,1.09335 0.662524,0 1.20069,-0.49005 1.20069,-1.09335 z m 0.514581,4.15278 0.992713,1.2183 c 0.225129,0.27724 0.656091,0.33582 0.96055,0.12886 0.304462,-0.20696 0.368785,-0.59743 0.141511,-0.87468 l -1.511582,-1.85479 c -0.54031,-0.66186 -1.391513,-1.05235 -2.298463,-1.05235 -0.906949,0 -1.758152,0.39049 -2.298462,1.05235 l -1.511583,1.85479 c -0.225129,0.27725 -0.162951,0.66772 0.14151,0.87468 0.304461,0.20696 0.733278,0.14838 0.960552,-0.12886 l 0.992712,-1.2183 v 5.37498 c 0,0.34557 0.306605,0.62477 0.686109,0.62477 0.379503,0 0.686108,-0.2792 0.686108,-0.62477 v -3.12385 c 0,-0.17182 0.154375,-0.31239 0.343054,-0.31239 0.18868,0 0.343054,0.14057 0.343054,0.31239 v 3.12385 c 0,0.34557 0.306605,0.62477 0.686109,0.62477 0.379503,0 0.686108,-0.2792 0.686108,-0.62477 z"
       id="path379"
       style="fill:#f3ce08;fill-opacity:1;stroke:#070707;stroke-width:0.02;stroke-dasharray:none;stroke-opacity:1" /><path
       d="m 101.83413,142.05724 c 0.18737,-0.17366 0.47681,-0.17366 0.66266,0 l 1.37557,1.27504 v -0.18737 c 0,-0.26963 0.21784,-0.48747 0.48747,-0.48747 h 0.48747 c 0.26963,0 0.48746,0.21784 0.48746,0.48747 v 1.54619 l 0.57583,0.53469 c 0.14624,0.1371 0.19498,0.34884 0.12186,0.53469 -0.0731,0.18585 -0.25287,0.30924 -0.45395,0.30924 h -0.24374 v 2.68107 c 0,0.53774 -0.43719,0.97494 -0.97493,0.97494 h -4.387216 c -0.537731,0 -0.974931,-0.4372 -0.974931,-0.97494 v -2.68107 h -0.24374 c -0.201077,0 -0.380831,-0.12339 -0.453952,-0.30924 -0.07312,-0.18585 -0.02437,-0.39912 0.121867,-0.53469 z m 0.0883,4.74368 c -0.40368,0 -0.7312,0.32752 -0.7312,0.7312 v 1.46241 h 1.94987 v -1.46241 c 0,-0.40368 -0.32751,-0.7312 -0.7312,-0.7312 z"
       id="path1305"
       style="fill:#6ab7fa;fill-opacity:1;stroke:#070707;stroke-width:0.0152334;stroke-opacity:1" /><path
       d="m 140.47993,157.29568 c 0.11146,-0.10331 0.28365,-0.10331 0.39421,0 l 0.81833,0.75852 v -0.11146 c 0,-0.16041 0.12959,-0.29 0.28999,-0.29 h 0.29 c 0.1604,0 0.28999,0.12959 0.28999,0.29 v 0.91983 l 0.34256,0.31808 c 0.087,0.0816 0.11599,0.20753 0.0725,0.31809 -0.0435,0.11056 -0.15044,0.18397 -0.27006,0.18397 h -0.145 v 1.59496 c 0,0.31991 -0.26008,0.58 -0.57999,0.58 h -2.60995 c -0.3199,0 -0.57999,-0.26009 -0.57999,-0.58 v -1.59496 h -0.145 c -0.11962,0 -0.22655,-0.0734 -0.27005,-0.18397 -0.0435,-0.11056 -0.0145,-0.23744 0.0725,-0.31809 z m 0.0525,2.82202 c -0.24015,0 -0.435,0.19484 -0.435,0.43499 v 0.86998 h 1.15998 v -0.86998 c 0,-0.24015 -0.19483,-0.43499 -0.43499,-0.43499 z"
       id="path1305-3"
       style="fill:#6ab7fa;fill-opacity:1;stroke:#070707;stroke-width:0.00906235;stroke-opacity:1" /><text
       xml:space="preserve"
       style="font-weight:bold;font-size:9.88408px;font-family:sans-serif;-inkscape-font-specification:'sans-serif, Bold';text-align:center;text-anchor:middle;fill:#f3ce08;fill-opacity:1;stroke:#070707;stroke-width:0.0116052;stroke-dasharray:none;stroke-opacity:1"
       x="64.129601"
       y="180.61302"
       id="text1731"
       transform="scale(0.88133114,1.1346473)"><tspan
         sodipodi:role="line"
         id="tspan1729"
         style="fill:#f3ce08;fill-opacity:1;stroke:#070707;stroke-width:0.0116052;stroke-dasharray:none;stroke-opacity:1"
         x="64.129601"
         y="180.61302">?</tspan></text><path
       style="fill:none;fill-opacity:1;stroke:#3eae56;stroke-width:1.02;stroke-dasharray:none;stroke-opacity:1;marker-end:url(#TriangleStart)"
       d="m 59.639324,199.82149 c 6.626365,2.37197 14.074589,2.37197 20.700954,0 3.986387,-1.42697 7.6255,-3.65682 11.367109,-5.63871 3.74161,-1.98188 7.703409,-3.75207 11.920353,-4.13273 4.47903,-0.40432 8.94472,0.78242 13.44021,0.90806 2.24774,0.0628 4.53151,-0.14773 6.63898,-0.93185 2.10748,-0.78412 4.03478,-2.18036 5.18132,-4.11472 1.32995,-2.2438 1.50664,-5.04374 0.89205,-7.57863 -0.61458,-2.5349 -1.95961,-4.83749 -3.51186,-6.93366 -3.53909,-4.7792 -8.16808,-8.61548 -12.52756,-12.66033 -1.99715,-1.85301 -3.94568,-3.75841 -5.84293,-5.71358"
       id="path1787"
       inkscape:path-effect="#path-effect1789"
       inkscape:original-d="m 59.639324,199.82149 c 6.900582,2.7e-4 13.800902,2.7e-4 20.700954,0 6.900056,-2.6e-4 15.525237,-6.51403 23.287462,-9.77144 7.76222,-3.25742 16.8406,-2.75874 25.26051,-4.13851 8.41991,-1.37977 -1.74628,-9.6746 -2.61981,-14.51229 -0.87354,-4.8377 -8.35144,-8.43995 -12.52756,-12.66033 -4.17611,-4.22037 -1.98444,-2.70892 -5.84293,-5.71358"
       sodipodi:nodetypes="csssssc" /><path
       style="fill:none;fill-opacity:1;stroke:#cf1d1d;stroke-width:1.02;stroke-dasharray:none;stroke-opacity:1;marker-end:url(#marker2987)"
       d="m 59.639324,199.82149 c 7.028202,1.00312 14.442847,-1.09537 19.902926,-5.63293 3.998213,-3.32268 6.878849,-7.77268 10.452047,-11.54868 3.242349,-3.42638 7.143581,-6.41367 9.199274,-10.65949 0.69206,-1.42938 1.153079,-2.97031 1.359759,-4.54491"
       id="path2381"
       inkscape:path-effect="#path-effect2383"
       inkscape:original-d="m 59.639324,199.82149 c 6.634572,-1.87738 13.26888,-3.75502 19.902926,-5.63293 6.634043,-1.87791 6.968294,-7.69886 10.452047,-11.54868 3.48375,-3.84982 6.133113,-7.10606 9.199274,-10.65949 3.066159,-3.55343 0.369136,-1.99537 1.359759,-4.54491"
       sodipodi:nodetypes="csssc" /><path
       style="fill:none;fill-opacity:1;stroke:#cf1d1d;stroke-width:1.02;stroke-dasharray:none;stroke-opacity:1;marker-end:url(#marker3049)"
       d="m 59.639324,199.82149 c 1.64825,0.69425 3.528332,0.82384 5.256251,0.36232 1.727919,-0.46152 3.292994,-1.5113 4.375567,-2.93493 1.082574,-1.42364 1.675955,-3.21233 1.658948,-5.00074 -0.01701,-1.78841 -0.644295,-3.56549 -1.753746,-4.96828 -1.171352,-1.48106 -2.841588,-2.51973 -4.628425,-3.13031 -3.69493,-1.2626 -7.720551,-0.75472 -11.625248,-0.75644 -1.952348,-8.6e-4 -3.922895,-0.13651 -5.796694,-0.68473 -1.873798,-0.54822 -3.656817,-1.53429 -4.918901,-3.02386 -0.753886,-0.88977 -1.310573,-1.94949 -1.589936,-3.08174 -0.279363,-1.13225 -0.278539,-2.33577 0.02769,-3.46105 0.306226,-1.12528 0.919965,-2.1688 1.772539,-2.96451 0.852574,-0.7957 1.943391,-1.33829 3.096476,-1.51272 1.096545,-0.16588 2.234191,8.6e-4 3.258538,0.42588 1.024348,0.42502 1.936267,1.10296 2.679244,1.92632 1.485954,1.64671 2.27188,3.82796 2.598023,6.02189 0.424052,2.85256 0.103425,5.8535 -1.178588,8.43678 -1.282012,2.58328 -3.571159,4.70839 -6.334411,5.53382 -1.381626,0.41272 -2.863967,0.4994 -4.277462,0.21434 -1.413495,-0.28506 -2.754397,-0.94512 -3.818078,-1.91867 -1.063681,-0.97356 -1.843514,-2.26099 -2.178585,-3.66347 -0.335072,-1.40248 -0.218338,-2.91476 0.361034,-4.2352 0.784687,-1.78837 2.353777,-3.13323 4.071335,-4.06275 1.717558,-0.92951 3.602261,-1.49663 5.443965,-2.14634 4.46444,-1.57496 8.896954,-3.78556 11.842411,-7.49177 1.120592,-1.41002 2.000171,-3.01108 2.589246,-4.7131"
       id="path3031"
       inkscape:path-effect="#path-effect3033"
       inkscape:original-d="m 59.639324,199.82149 c 3.17927,-4.18028 6.358278,-8.36082 9.53702,-12.54163 3.178743,-4.18081 -3.085352,-2.08661 -4.628425,-3.13031 -1.543072,-1.04371 -14.893629,-2.97642 -22.340843,-4.46503 -7.447211,-1.4886 2.204776,-7.34642 3.306765,-11.02002 1.10199,-3.67361 5.690802,5.58299 8.535805,8.37409 2.845004,2.7911 -11.617129,2.912 -17.42609,4.3676 -5.808959,1.4556 6.343798,-4.13913 9.5153,-6.20909 3.171502,-2.06996 7.895206,-4.99425 11.842411,-7.49177 3.947208,-2.49752 1.213523,-1.9376 2.589246,-4.7131"
       sodipodi:nodetypes="cssssssssc" /><path
       style="fill:none;fill-opacity:1;stroke:#cf1d1d;stroke-width:1.02;stroke-dasharray:none;stroke-opacity:1"
       d="m 96.690023,163.84419 h 9.383627"
       id="path3113" /><path
       style="fill:none;fill-opacity:1;stroke:#cfc91d;stroke-width:1.02;stroke-dasharray:none;stroke-opacity:1;marker-end:url(#marker3139)"
       d="m 59.639324,199.82149 c 6.178487,4.20017 13.807133,6.22191 21.254836,5.63294 7.229954,-0.57175 14.031813,-3.47841 20.93255,-5.70975 3.45037,-1.11568 6.97015,-2.07187 10.57334,-2.48028 3.60319,-0.40841 7.30542,-0.25581 10.77165,0.80957 3.71623,1.14222 7.03176,3.28227 10.30701,5.37698 3.27525,2.09471 6.6231,4.19635 10.36634,5.24672 1.87161,0.52519 3.83137,0.77792 5.76801,0.61002 1.93665,-0.1679 3.85046,-0.76661 5.46779,-1.84503 1.61733,-1.07843 2.92531,-2.64896 3.57274,-4.48189 0.64742,-1.83292 0.60469,-3.92397 -0.23241,-5.6784 -0.50902,-1.06683 -1.28679,-1.98342 -2.12545,-2.81641 -0.83866,-0.833 -1.7459,-1.59505 -2.57649,-2.43609 -0.83059,-0.84104 -1.59165,-1.77412 -2.06961,-2.85522 -0.47797,-1.0811 -0.65385,-2.32784 -0.30472,-3.45715 0.22053,-0.71335 0.63986,-1.35341 1.14112,-1.90681 0.50126,-0.55339 1.08448,-1.0259 1.67704,-1.48019 1.18512,-0.90858 2.45709,-1.79686 3.18841,-3.09885 0.40562,-0.72214 0.62327,-1.54632 0.64577,-2.37428 0.0225,-0.82795 -0.14858,-1.65855 -0.47928,-2.41792 -0.6614,-1.51875 -1.95594,-2.72251 -3.46544,-3.40476 -1.83544,-0.82957 -3.92471,-0.91612 -5.80984,-1.62557 -1.73673,-0.6536 -3.26787,-1.84226 -4.33161,-3.36274"
       id="path3115"
       inkscape:path-effect="#path-effect3117"
       inkscape:original-d="m 59.639324,199.82149 c 7.08521,1.87791 14.170154,3.75555 21.254836,5.63294 7.084681,1.87738 28.18529,-4.92004 42.27754,-7.38046 14.09225,-2.46042 23.49992,-0.51413 35.24948,-0.7716 11.74957,-0.25746 -4.71725,-7.70964 -7.07627,-11.56487 -2.35903,-3.85522 4.00464,-4.32364 6.00657,-6.48585 2.00193,-2.16222 -2.19903,-5.46437 -3.29895,-8.19696 -1.09991,-2.73258 -3.87296,-1.08345 -5.80984,-1.62557 -1.93688,-0.54212 -2.38739,-1.67083 -4.33161,-3.36274"
       sodipodi:nodetypes="csssssssc" /></g></svg>
