<?xml version="1.0" encoding="UTF-8" standalone="no"?>
<!-- Created with Inkscape (http://www.inkscape.org/) -->

<svg
   width="32pc"
   height="32pc"
   viewBox="0 0 135.46666 135.46667"
   version="1.1"
   id="svg5"
   inkscape:version="1.2.2 (b0a8486541, 2022-12-01)"
   sodipodi:docname="favicon.svg"
   xml:space="preserve"
   xmlns:inkscape="http://www.inkscape.org/namespaces/inkscape"
   xmlns:sodipodi="http://sodipodi.sourceforge.net/DTD/sodipodi-0.dtd"
   xmlns="http://www.w3.org/2000/svg"
   xmlns:svg="http://www.w3.org/2000/svg"><sodipodi:namedview
     id="namedview7"
     pagecolor="#ffffff"
     bordercolor="#000000"
     borderopacity="0.25"
     inkscape:showpageshadow="2"
     inkscape:pageopacity="0.0"
     inkscape:pagecheckerboard="0"
     inkscape:deskcolor="#d1d1d1"
     inkscape:document-units="mm"
     showgrid="false"
     inkscape:zoom="1.0581589"
     inkscape:cx="258.94032"
     inkscape:cy="362.89446"
     inkscape:window-width="2560"
     inkscape:window-height="1368"
     inkscape:window-x="0"
     inkscape:window-y="40"
     inkscape:window-maximized="1"
     inkscape:current-layer="layer1" /><defs
     id="defs2" /><g
     inkscape:label="Layer 1"
     inkscape:groupmode="layer"
     id="layer1"><rect
       style="fill:#ffffff;stroke:none;stroke-width:2;fill-opacity:1"
       id="rect340"
       width="135.46666"
       height="135.46666"
       x="0"
       y="0" /><path
       d="m 67.803068,9.4420364 c 1.490177,-3.12874 5.001472,-4.7834782 8.385939,-3.939067 l 13.315202,3.322088 c 3.384467,0.844411 5.70692,3.9546446 5.552717,7.4167056 l -0.660128,16.391879 c 2.806214,2.119275 5.317599,4.567076 7.484002,7.259945 l 16.34645,-1.24338 c 3.47299,-0.268812 6.65773,1.944904 7.61667,5.30625 l 3.77995,13.194947 c 0.95893,3.361346 -0.56446,6.907548 -3.66389,8.523129 l -14.50113,7.593197 c -0.2107,1.697702 -0.54384,3.412152 -0.9716,5.12665 -0.42776,1.714497 -0.96129,3.378962 -1.55052,4.982212 l 9.25138,13.543009 c 1.97727,2.88219 1.62845,6.745089 -0.76927,9.245309 l -9.53526,9.87286 c -2.41998,2.49468 -6.27691,2.97516 -9.216602,1.10642 l -13.846549,-8.77643 c -3.199752,1.35405 -6.561098,2.31297 -10.017238,2.89346 l -7.089515,14.76413 c -1.517998,3.14544 -5.02374,4.77792 -8.38594,3.93906 l -13.315201,-3.32208 c -3.384466,-0.84442 -5.706922,-3.95465 -5.55272,-7.41671 l 0.676842,-16.36406 c -2.806219,-2.11927 -5.295333,-4.561519 -7.484008,-7.259949 l -16.413251,1.22673 c -3.472992,0.26881 -6.657735,-1.944906 -7.6166665,-5.306246 L 5.842795,78.32714 C 4.8838643,74.965797 6.4072367,71.4196 9.5066744,69.804021 L 24.035622,62.19411 c 0.210696,-1.697692 0.543838,-3.412153 0.971598,-5.12665 0.427761,-1.714498 0.961297,-3.378951 1.550521,-4.982211 L 17.306361,38.542243 C 15.3291,35.660048 15.677919,31.797151 18.075633,29.296927 l 9.535263,-9.872862 c 2.425538,-2.516937 6.276921,-2.975168 9.216602,-1.106421 l 13.84655,8.776412 c 3.199747,-1.354025 6.561095,-2.31296 10.017241,-2.893454 z M 63.291841,85.541117 c 9.852778,2.41094 19.796185,-3.599391 22.207107,-13.452169 2.410932,-9.852786 -3.599394,-19.79619 -13.452174,-22.207119 -9.852779,-2.410941 -19.79619,3.599397 -22.207114,13.452184 -2.410922,9.852779 3.599397,19.796181 13.452181,22.207104 z"
       id="path5688"
       style="fill:#000000;fill-opacity:1;stroke-width:0.229487" /></g></svg>
